<svg xmlns="http://www.w3.org/2000/svg" xmlns:xlink="http://www.w3.org/1999/xlink" width="300" zoomAndPan="magnify" viewBox="0 0 224.87999 149.999998" height="200" preserveAspectRatio="xMidYMid meet" version="1.0"><defs><g/></defs><g fill="#242424" fill-opacity="1"><g transform="translate(0.299261, 78.947393)"><g><path d="M 41.15625 0 L 33.453125 0 L 33.40625 -22.328125 L 25.171875 -3.4375 L 19.484375 -3.4375 L 11.234375 -22.328125 L 11.234375 0 L 3.4375 0 L 3.4375 -34.390625 L 13 -34.390625 L 22.328125 -13.9375 L 31.640625 -34.390625 L 41.15625 -34.390625 Z M 41.15625 0 "/></g></g></g><g fill="#242424" fill-opacity="1"><g transform="translate(44.93886, 78.947393)"><g><path d="M 12.171875 0 L 3.4375 0 L 3.4375 -34.34375 L 12.171875 -34.34375 Z M 12.171875 0 "/></g></g></g><g fill="#242424" fill-opacity="1"><g transform="translate(60.538193, 78.947393)"><g><path d="M 35.125 0 L 27.421875 0 L 11.625 -21.140625 L 11.625 0 L 3.4375 0 L 3.4375 -34.34375 L 11.140625 -34.34375 L 26.984375 -13.15625 L 26.984375 -34.34375 L 35.125 -34.34375 Z M 35.125 0 "/></g></g></g><g fill="#242424" fill-opacity="1"><g transform="translate(99.095031, 78.947393)"><g><path d="M 12.171875 0 L 3.4375 0 L 3.4375 -34.34375 L 12.171875 -34.34375 Z M 12.171875 0 "/></g></g></g><g fill="#242424" fill-opacity="1"><g transform="translate(114.694365, 78.947393)"><g><path d="M 41.15625 0 L 33.453125 0 L 33.40625 -22.328125 L 25.171875 -3.4375 L 19.484375 -3.4375 L 11.234375 -22.328125 L 11.234375 0 L 3.4375 0 L 3.4375 -34.390625 L 13 -34.390625 L 22.328125 -13.9375 L 31.640625 -34.390625 L 41.15625 -34.390625 Z M 41.15625 0 "/></g></g></g><g fill="#242424" fill-opacity="1"><g transform="translate(159.333964, 78.947393)"><g><path d="M 26.25 -6.328125 L 11.234375 -6.328125 L 8.734375 0 L -0.25 0 L 14.578125 -34.34375 L 23.546875 -34.34375 L 38.015625 0 L 28.703125 0 Z M 23.703125 -12.953125 L 18.796875 -25.65625 L 13.78125 -12.953125 Z M 23.703125 -12.953125 "/></g></g></g><g fill="#242424" fill-opacity="1"><g transform="translate(197.105929, 78.947393)"><g><path d="M 12.171875 -7.3125 L 26.734375 -7.3125 L 26.734375 0 L 3.4375 0 L 3.4375 -34.34375 L 12.171875 -34.34375 Z M 12.171875 -7.3125 "/></g></g></g><g fill="#f57927" fill-opacity="1"><g transform="translate(8.224658, 104.398872)"><g><path d="M 12.0625 -12.5625 L 7.359375 -12.5625 L 7.359375 0 L 4.859375 0 L 4.859375 -12.5625 L 0.1875 -12.5625 L 0.1875 -14.8125 L 12.0625 -14.8125 Z M 12.0625 -12.5625 "/></g></g></g><g fill="#f57927" fill-opacity="1"><g transform="translate(28.655126, 104.398872)"><g><path d="M 12.53125 -12.5625 L 4.4375 -12.5625 L 4.4375 -8.5625 L 11.671875 -8.5625 L 11.671875 -6.328125 L 4.4375 -6.328125 L 4.4375 -2.25 L 12.78125 -2.25 L 12.78125 0 L 1.953125 0 L 1.953125 -14.8125 L 12.53125 -14.8125 Z M 12.53125 -12.5625 "/></g></g></g><g fill="#f57927" fill-opacity="1"><g transform="translate(50.71389, 104.398872)"><g><path d="M 8.5 -14.875 C 9.550781 -14.875 10.570312 -14.671875 11.5625 -14.265625 C 12.550781 -13.867188 13.40625 -13.3125 14.125 -12.59375 L 12.671875 -10.765625 C 12.140625 -11.347656 11.503906 -11.804688 10.765625 -12.140625 C 10.035156 -12.484375 9.296875 -12.65625 8.546875 -12.65625 C 7.066406 -12.65625 5.816406 -12.148438 4.796875 -11.140625 C 3.773438 -10.128906 3.265625 -8.898438 3.265625 -7.453125 C 3.265625 -5.984375 3.773438 -4.742188 4.796875 -3.734375 C 5.816406 -2.722656 7.066406 -2.21875 8.546875 -2.21875 C 10.085938 -2.21875 11.460938 -2.804688 12.671875 -3.984375 L 14.15625 -2.328125 C 13.394531 -1.578125 12.503906 -0.984375 11.484375 -0.546875 C 10.472656 -0.109375 9.453125 0.109375 8.421875 0.109375 C 6.242188 0.109375 4.414062 -0.613281 2.9375 -2.0625 C 1.457031 -3.507812 0.71875 -5.296875 0.71875 -7.421875 C 0.71875 -9.523438 1.46875 -11.289062 2.96875 -12.71875 C 4.46875 -14.15625 6.3125 -14.875 8.5 -14.875 Z M 8.5 -14.875 "/></g></g></g><g fill="#f57927" fill-opacity="1"><g transform="translate(73.639668, 104.398872)"><g><path d="M 14.78125 0 L 12.296875 0 L 12.296875 -6.140625 L 4.4375 -6.140625 L 4.4375 0 L 1.953125 0 L 1.953125 -14.8125 L 4.4375 -14.8125 L 4.4375 -8.375 L 12.296875 -8.375 L 12.296875 -14.8125 L 14.78125 -14.8125 Z M 14.78125 0 "/></g></g></g><g fill="#f57927" fill-opacity="1"><g transform="translate(98.553237, 104.398872)"><g/></g></g><g fill="#f57927" fill-opacity="1"><g transform="translate(112.195618, 104.398872)"><g><path d="M 6.8125 -14.921875 C 8.726562 -14.921875 10.457031 -14.410156 12 -13.390625 L 10.953125 -11.1875 C 9.441406 -12.101562 8 -12.5625 6.625 -12.5625 C 5.875 -12.5625 5.28125 -12.425781 4.84375 -12.15625 C 4.414062 -11.894531 4.203125 -11.515625 4.203125 -11.015625 C 4.203125 -10.523438 4.398438 -10.109375 4.796875 -9.765625 C 5.191406 -9.421875 5.6875 -9.164062 6.28125 -9 C 6.875 -8.84375 7.515625 -8.640625 8.203125 -8.390625 C 8.898438 -8.140625 9.539062 -7.875 10.125 -7.59375 C 10.71875 -7.320312 11.207031 -6.894531 11.59375 -6.3125 C 11.988281 -5.726562 12.1875 -5.019531 12.1875 -4.1875 C 12.1875 -2.894531 11.664062 -1.859375 10.625 -1.078125 C 9.59375 -0.304688 8.25 0.078125 6.59375 0.078125 C 5.46875 0.078125 4.375 -0.128906 3.3125 -0.546875 C 2.257812 -0.972656 1.335938 -1.546875 0.546875 -2.265625 L 1.625 -4.421875 C 2.375 -3.734375 3.195312 -3.203125 4.09375 -2.828125 C 4.988281 -2.453125 5.835938 -2.265625 6.640625 -2.265625 C 7.515625 -2.265625 8.195312 -2.421875 8.6875 -2.734375 C 9.175781 -3.054688 9.421875 -3.5 9.421875 -4.0625 C 9.421875 -4.570312 9.222656 -5 8.828125 -5.34375 C 8.429688 -5.6875 7.9375 -5.9375 7.34375 -6.09375 C 6.75 -6.257812 6.101562 -6.457031 5.40625 -6.6875 C 4.71875 -6.925781 4.078125 -7.175781 3.484375 -7.4375 C 2.898438 -7.695312 2.410156 -8.113281 2.015625 -8.6875 C 1.617188 -9.269531 1.421875 -9.972656 1.421875 -10.796875 C 1.421875 -12.046875 1.910156 -13.046875 2.890625 -13.796875 C 3.878906 -14.546875 5.1875 -14.921875 6.8125 -14.921875 Z M 6.8125 -14.921875 "/></g></g></g><g fill="#f57927" fill-opacity="1"><g transform="translate(133.535401, 104.398872)"><g><path d="M 12.0625 -12.5625 L 7.359375 -12.5625 L 7.359375 0 L 4.859375 0 L 4.859375 -12.5625 L 0.1875 -12.5625 L 0.1875 -14.8125 L 12.0625 -14.8125 Z M 12.0625 -12.5625 "/></g></g></g><g fill="#f57927" fill-opacity="1"><g transform="translate(153.965866, 104.398872)"><g><path d="M 2.984375 -12.71875 C 4.492188 -14.15625 6.351562 -14.875 8.5625 -14.875 C 10.78125 -14.875 12.644531 -14.15625 14.15625 -12.71875 C 15.664062 -11.289062 16.421875 -9.519531 16.421875 -7.40625 C 16.421875 -5.289062 15.664062 -3.507812 14.15625 -2.0625 C 12.644531 -0.613281 10.78125 0.109375 8.5625 0.109375 C 6.351562 0.109375 4.492188 -0.613281 2.984375 -2.0625 C 1.472656 -3.507812 0.71875 -5.289062 0.71875 -7.40625 C 0.71875 -9.519531 1.472656 -11.289062 2.984375 -12.71875 Z M 8.59375 -12.625 C 7.125 -12.625 5.867188 -12.117188 4.828125 -11.109375 C 3.785156 -10.109375 3.265625 -8.875 3.265625 -7.40625 C 3.265625 -5.9375 3.785156 -4.691406 4.828125 -3.671875 C 5.878906 -2.648438 7.128906 -2.140625 8.578125 -2.140625 C 10.035156 -2.140625 11.28125 -2.648438 12.3125 -3.671875 C 13.34375 -4.691406 13.859375 -5.9375 13.859375 -7.40625 C 13.859375 -8.875 13.34375 -10.109375 12.3125 -11.109375 C 11.28125 -12.117188 10.039062 -12.625 8.59375 -12.625 Z M 8.59375 -12.625 "/></g></g></g><g fill="#f57927" fill-opacity="1"><g transform="translate(179.281215, 104.398872)"><g><path d="M 11.34375 0 L 8.625 -4.484375 C 8.488281 -4.472656 8.265625 -4.46875 7.953125 -4.46875 L 4.4375 -4.46875 L 4.4375 0 L 1.953125 0 L 1.953125 -14.8125 L 7.953125 -14.8125 C 9.847656 -14.8125 11.316406 -14.367188 12.359375 -13.484375 C 13.398438 -12.609375 13.921875 -11.363281 13.921875 -9.75 C 13.921875 -8.5625 13.65625 -7.554688 13.125 -6.734375 C 12.59375 -5.921875 11.835938 -5.328125 10.859375 -4.953125 L 14.171875 0 Z M 4.4375 -6.703125 L 7.953125 -6.703125 C 10.347656 -6.703125 11.546875 -7.695312 11.546875 -9.6875 C 11.546875 -11.601562 10.347656 -12.5625 7.953125 -12.5625 L 4.4375 -12.5625 Z M 4.4375 -6.703125 "/></g></g></g><g fill="#f57927" fill-opacity="1"><g transform="translate(202.756799, 104.398872)"><g><path d="M 12.53125 -12.5625 L 4.4375 -12.5625 L 4.4375 -8.5625 L 11.671875 -8.5625 L 11.671875 -6.328125 L 4.4375 -6.328125 L 4.4375 -2.25 L 12.78125 -2.25 L 12.78125 0 L 1.953125 0 L 1.953125 -14.8125 L 12.53125 -14.8125 Z M 12.53125 -12.5625 "/></g></g></g></svg>